<svg xmlns="http://www.w3.org/2000/svg" version="1.1" xmlns:xlink="http://www.w3.org/1999/xlink" xmlns:svgjs="http://svgjs.dev/svgjs" viewBox="0 0 800 400"><path d="M180.83831787109375,73.05389404296875C169.840314356486,105.8582867940267,99.8103764851888,249.90021209716798,111.37724304199219,280.2395324707031C122.94410959879558,310.57885284423827,215.96806144714355,295.389218711853,253.8922119140625,264.670654296875C291.81636238098145,233.95208988189697,313.1636606852214,115.23952198028564,350.898193359375,86.22754669189453C388.6327260335286,57.21557140350342,494.68064371744794,52.9940139134725,492.215576171875,81.43712615966797C489.75050862630206,109.88023840586344,338.742519124349,239.13172766367595,335.329345703125,265.8682556152344C331.916172281901,292.6047835667928,429.89022572835285,278.1736583709717,470.65869140625,250.29940795898438C511.42715708414715,222.42515754699707,556.4072057088216,114.09181626637776,592.8143920898438,89.82035827636719C629.2215784708659,65.54890028635661,690.548920694987,77.09580917358399,700.5988159179688,97.00598907470703C710.6487111409505,116.91616897583008,679.0419072469075,182.1956107457479,656.2874145507812,215.56886291503906C633.532921854655,248.94211508433023,579.8303385416666,303.42314694722495,556.88623046875,307.784423828125C533.9421223958334,312.14570070902505,505.87825775146484,262.075843556722,511.37725830078125,243.11376953125C516.8762588500977,224.15169550577798,578.9121724446615,196.74651006062825,591.6167602539062,188.02395629882812" fill="none" stroke-width="25" stroke="url(&quot;#SvgjsLinearGradient1003&quot;)" stroke-linecap="round" transform="matrix(1,0,-0.17632698070846498,1,32.54224996560049,0)"></path><defs><linearGradient id="SvgjsLinearGradient1003"><stop stop-color="hsl(184, 74%, 44%)" offset="0"></stop><stop stop-color="hsl(332, 87%, 70%)" offset="1"></stop></linearGradient></defs></svg>